<?xml version="1.0" encoding="UTF-8" standalone="no"?>
<svg
   xmlns:dc="http://purl.org/dc/elements/1.1/"
   xmlns:cc="http://creativecommons.org/ns#"
   xmlns:rdf="http://www.w3.org/1999/02/22-rdf-syntax-ns#"
   xmlns:svg="http://www.w3.org/2000/svg"
   xmlns="http://www.w3.org/2000/svg"
   width="32"
   height="32"
   viewBox="0 0 8.4666664 8.4666669"
   version="1.1"
   id="svg8">
  <defs
     id="defs2" />
  <metadata
     id="metadata5">
    <rdf:RDF>
      <cc:Work
         rdf:about="">
        <dc:format>image/svg+xml</dc:format>
        <dc:type
           rdf:resource="http://purl.org/dc/dcmitype/StillImage" />
        <dc:title></dc:title>
        <dc:creator>
          <cc:Agent>
            <dc:title>David Lettier</dc:title>
          </cc:Agent>
        </dc:creator>
        <dc:rights>
          <cc:Agent>
            <dc:title>(C) David Lettier</dc:title>
          </cc:Agent>
        </dc:rights>
      </cc:Work>
    </rdf:RDF>
  </metadata>
  <g
     id="layer1"
     transform="translate(0,-288.53333)">
    <path
       style="fill:#f08080;fill-opacity:1;stroke:#c4505d;stroke-width:0.49022204;stroke-miterlimit:4;stroke-dasharray:none;stroke-opacity:1"
       d="m 3.2547171,296.57402 c -1.7195506,-0.42103 -3.0435016,-2.12287 -2.93746041,-3.90248 -0.0350161,-1.98289 1.72554031,-3.7423 3.69094621,-3.8178 1.8028053,-0.12922 3.5818856,1.14437 4.023386,2.89681 0.3209702,1.28906 0.017505,2.75738 -0.9438686,3.7099 -0.893256,0.96843 -2.2814246,1.40338 -3.5727555,1.16286 -0.087349,-0.013 -0.1742341,-0.0293 -0.2602477,-0.0493 z"
       id="path902" />
    <path
       style="display:inline;fill:#ffffff;fill-opacity:1;stroke-width:0.05347677"
       d="m 5.2508972,294.34093 c 0.7930988,-0.34628 0.9603452,-0.78444 0.8986278,-0.84604 -1.1389239,0.21353 -2.313854,0.21934 -3.3984175,0.14543 -0.1742615,-0.035 -0.5335916,-0.0655 -0.5124251,-0.0153 -0.058109,0.13811 0.1943099,0.43569 0.6696405,0.60362 0.843343,0.35954 1.4403968,0.33911 2.3425743,0.11238 z"
       id="path898" />
    <path
       style="display:inline;fill:#c4505d;fill-opacity:1;stroke-width:0.05347677"
       d="m 3.5121744,295.44754 c -0.4440319,-0.11936 -0.8140043,-0.33346 -1.14204,-0.6609 -0.3822232,-0.38151 -0.5381279,-0.68263 -0.5720929,-1.105 -0.00613,-0.84753 0.9942489,-0.46102 1.2449996,-0.4238 0.6827227,0.10135 1.5653809,0.10135 2.2481035,0 0.7116495,-0.12737 1.2967442,-0.24018 1.2449996,0.4238 -0.033965,0.42237 -0.1898696,0.72349 -0.5720919,1.105 -0.6353927,0.63421 -1.5919499,0.89206 -2.4518779,0.6609 z m 1.365167,-1.06673 c 0.5650837,-0.133 1.2442636,-0.55593 1.1763653,-0.73252 -0.027477,-0.0715 -0.074558,-0.0715 -0.4235022,-8.5e-4 -0.5278237,0.10665 -2.2712093,0.11821 -2.8702341,0.019 -0.4641527,-0.0768 -0.5531418,-0.0599 -0.4599732,0.0876 0.1546675,0.24473 0.8488431,0.61032 1.3318329,0.67349 0.4829898,0.0632 0.8457346,0.0416 1.2455113,-0.0467 z m -2.2153467,-1.95835 c -0.178658,-0.0864 -0.3415581,-0.42627 -0.3415581,-0.71261 0,-0.49682 0.3769063,-0.89179 0.6846044,-0.71742 0.2160579,0.12242 0.3453527,0.34151 0.3733826,0.63268 0.031183,0.32398 -0.049831,0.54526 -0.2661426,0.72696 -0.16879,0.14175 -0.2700078,0.15756 -0.4502863,0.0703 z m 2.556541,-0.0731 c -0.4056969,-0.34073 -0.3438592,-1.09928 0.1106092,-1.35681 0.3065208,-0.17368 0.6846046,0.22062 0.6846046,0.714 0,0.28847 -0.099203,0.50848 -0.3005429,0.66656 -0.1861615,0.14616 -0.2988115,0.14075 -0.4946709,-0.0237 z"
       id="path896" />
    <path
       id="path977"
       d="m 2.519296,292.6557 c -0.3100188,-0.14954 -0.5927,-0.73981 -0.5927,-1.23663 0,-0.86202 0.6540322,-1.5474 1.187969,-1.24484 0.3749393,0.21253 0.5992711,0.59258 0.6479152,1.09784 0.053908,0.56225 -0.086497,0.9462 -0.4618224,1.26144 -0.2928982,0.24615 -0.4685346,0.27387 -0.7813618,0.12187 z"
       style="fill:#c4505d;fill-opacity:1;stroke-width:0.0927962" />
    <path
       style="fill:#ffffff;fill-opacity:1;stroke-width:0.03558758"
       d="m 2.3519006,291.57111 c -0.1188936,-0.0574 -0.2273019,-0.28366 -0.2273019,-0.47423 0,-0.33061 0.2508251,-0.59346 0.4555908,-0.4774 0.1437901,0.0816 0.2298194,0.227 0.2484776,0.42106 0.020674,0.21563 -0.033172,0.36282 -0.1771075,0.48374 -0.1123281,0.0945 -0.1796843,0.10492 -0.2996547,0.0467 z"
       id="path896-5" />
    <path
       style="fill:#c4505d;fill-opacity:1;stroke-width:0.0927962"
       d="m 5.0180396,292.68107 c -0.3100188,-0.14954 -0.5927,-0.73981 -0.5927,-1.23663 0,-0.86202 0.6540322,-1.5474 1.187969,-1.24484 0.3749393,0.21253 0.5992711,0.59258 0.6479152,1.09784 0.053908,0.56225 -0.086497,0.9462 -0.4618224,1.26144 -0.2928982,0.24615 -0.4685346,0.27387 -0.7813618,0.12187 z"
       id="path975" />
    <path
       id="path940"
       d="m 4.9436546,291.49569 c -0.1185172,-0.0572 -0.2265836,-0.28282 -0.2265836,-0.47275 0,-0.32955 0.2500303,-0.59156 0.4541492,-0.4759 0.1433357,0.0813 0.2290957,0.22654 0.2476919,0.4197 0.020608,0.21495 -0.033067,0.36173 -0.1765504,0.48224 -0.1119722,0.0941 -0.1791163,0.10469 -0.2987071,0.0466 z"
       style="fill:#ffffff;fill-opacity:1;stroke-width:0.03547511" />
  </g>
</svg>
